# xmcd
#
# Track frame offsets: 
#        150
#        19355
#        39210
#        54005
#        72397
#        86787
#        102735
#        121297
#        136742
#        152880
#        173347
#        188145
#
# Disc length: 2725 seconds
#
# Revision: 2
# Processed by: cddbd v1.4PL0 Copyright (c) Steve Scherf et al.
# Submitted via: ExactAudioCopy v0.90b4
#
DISCID=980aa30c
DTITLE=Cassandra Vasik - Wildflowers
DYEAR=1991
DGENRE=Country
TTITLE0=Black Book
TTITLE1=Burning Witches
TTITLE2=Which Face Should I Put on Tonight
TTITLE3=When Will I Become a Man
TTITLE4=It comes Back to You
TTITLE5=Those Stars
TTITLE6=Fading Footsteps
TTITLE7=Painted Cafe
TTITLE8=Wildflowers
TTITLE9=I Walk Alone
TTITLE10=Innocence
TTITLE11=Talk Around Me
EXTD=
EXTT0=
EXTT1=
EXTT2=
EXTT3=
EXTT4=
EXTT5=
EXTT6=
EXTT7=
EXTT8=
EXTT9=
EXTT10=
EXTT11=
PLAYORDER=
